<?xml version="1.0" standalone="no"?>
<!DOCTYPE svg PUBLIC "-//W3C//DTD SVG 20010904//EN"
 "http://www.w3.org/TR/2001/REC-SVG-20010904/DTD/svg10.dtd">
<svg version="1.0" xmlns="http://www.w3.org/2000/svg"
 width="1600.000000pt" height="1642.000000pt" viewBox="0 0 1600.000000 1642.000000"
 preserveAspectRatio="xMidYMid meet">

<g transform="translate(0.000000,1642.000000) scale(0.100000,-0.100000)"
fill="#000000" stroke="none">
<path d="M7760 16308 c0 -40 7 -244 15 -453 28 -695 35 -995 35 -1535 l0 -535
-56 -45 c-149 -119 -275 -284 -373 -491 -127 -267 -190 -545 -191 -831 l0
-128 -73 0 c-95 0 -155 -21 -217 -77 -104 -93 -145 -237 -145 -503 1 -221 24
-337 134 -675 l40 -120 -29 -50 c-50 -88 -92 -230 -98 -330 -11 -213 81 -602
220 -925 169 -396 403 -745 751 -1124 l78 -85 -11 -98 c-14 -128 -27 -201 -52
-295 -19 -71 -38 -102 -38 -63 0 30 -18 14 -44 -39 -15 -30 -48 -78 -73 -106
-115 -128 -204 -124 -653 35 -346 122 -645 201 -845 221 -62 6 -65 6 -65 -15
0 -21 -3 -22 -52 -17 -197 20 -444 13 -661 -19 -97 -15 -100 -15 -177 9 -145
46 -241 59 -405 53 -107 -3 -172 -10 -227 -25 -448 -121 -878 -501 -1235
-1092 -175 -290 -312 -580 -547 -1157 -152 -374 -150 -370 -294 -623 -326
-576 -436 -727 -608 -828 -216 -127 -508 -130 -591 -4 -70 106 -14 373 148
698 l71 140 117 97 c169 140 416 415 565 631 138 199 262 428 323 596 36 99
126 431 118 438 -2 2 -16 -5 -32 -15 -67 -47 -393 -229 -462 -258 -42 -18
-150 -53 -241 -79 -209 -60 -333 -106 -439 -163 -95 -50 -96 -56 13 82 31 39
56 73 56 76 0 3 -24 4 -52 2 -184 -15 -419 -82 -543 -155 -93 -55 -217 -180
-294 -298 -79 -120 -200 -358 -240 -473 -61 -174 -75 -268 -74 -507 0 -183 3
-231 22 -320 85 -403 286 -721 615 -969 172 -130 380 -191 654 -191 357 0 607
108 879 378 206 206 314 387 581 982 286 636 545 1150 814 1610 69 117 198
303 206 296 1 -2 -7 -47 -18 -102 -45 -222 -43 -388 6 -632 48 -241 116 -409
255 -630 78 -125 176 -261 277 -387 l80 -100 -121 -6 c-296 -16 -461 -136
-512 -374 -48 -217 -20 -855 71 -1660 139 -1239 270 -2111 341 -2285 8 -19 24
-45 35 -57 11 -12 42 -76 69 -144 73 -178 121 -239 234 -294 160 -79 564 -130
835 -106 131 12 330 49 436 82 123 38 203 126 225 248 10 59 9 87 -4 178 -9
59 -19 160 -21 223 -13 287 -214 1024 -435 1591 -124 321 -196 523 -240 682
-45 161 -112 429 -108 433 1 1 49 -9 107 -22 149 -34 350 -50 475 -37 55 5
101 9 102 9 1 -1 18 -96 38 -211 195 -1130 380 -1988 455 -2110 10 -16 34 -70
54 -120 79 -196 155 -258 384 -316 157 -40 317 -59 490 -59 167 0 295 17 459
60 172 45 237 99 269 223 16 64 15 69 -9 189 -14 68 -26 147 -26 176 -1 71
-29 188 -92 380 -126 386 -283 753 -519 1217 -93 182 -185 371 -206 420 -29
72 -164 433 -164 440 0 1 57 5 128 8 78 4 173 17 247 33 102 23 155 28 353 33
143 5 237 12 243 18 8 8 8 17 -1 32 -13 26 -19 24 125 46 204 31 460 101 603
166 34 15 62 26 62 23 0 -12 -66 -132 -130 -239 -98 -162 -141 -225 -229 -334
-42 -52 -94 -120 -116 -151 -22 -32 -73 -97 -113 -143 -89 -106 -180 -231
-198 -274 -21 -49 -43 -139 -55 -220 -22 -155 49 -472 160 -717 40 -88 144
-247 210 -318 153 -167 356 -238 549 -193 66 16 82 14 82 -11 0 -36 102 -319
150 -414 66 -132 163 -299 211 -366 103 -141 290 -202 649 -211 161 -4 229 -2
318 11 137 20 310 63 412 102 92 36 162 99 181 165 23 78 17 201 -18 354 -17
77 -36 169 -43 205 -15 87 -87 297 -168 488 -105 252 -361 1030 -456 1390
l-33 127 18 100 c45 250 54 360 54 680 0 326 -5 388 -51 613 -53 259 -120 399
-268 559 l-66 71 26 108 c65 278 94 613 76 881 -33 477 -130 821 -362 1291
-54 108 -97 199 -95 201 6 5 200 -105 281 -160 120 -81 217 -164 333 -286
l112 -116 130 7 c72 4 170 13 218 22 76 13 269 61 280 70 2 2 -17 26 -42 53
-60 64 -106 136 -150 238 -83 189 -72 334 38 504 43 67 268 309 287 309 4 0
24 -33 44 -72 81 -161 203 -312 334 -413 396 -305 1150 -294 1501 22 63 57
155 185 209 293 68 135 131 367 141 519 l3 43 -83 24 c-112 33 -196 70 -320
141 -138 80 -227 145 -251 185 -30 50 -25 98 31 294 119 419 160 769 125 1068
-9 76 -15 140 -13 142 2 2 75 -23 163 -55 524 -194 1141 -351 1844 -470 254
-43 490 -75 514 -69 11 2 3 33 -43 148 -121 305 -262 598 -394 819 -343 574
-863 1200 -1219 1466 -239 179 -649 390 -1011 520 -42 15 -76 30 -73 32 5 6
613 -15 791 -27 77 -5 187 -12 245 -15 117 -6 640 -41 764 -51 l80 -6 -45 53
c-115 138 -352 373 -499 496 -317 264 -795 520 -1215 652 -307 96 -545 135
-974 159 -95 5 -126 11 -132 22 -4 8 -24 87 -44 175 -49 210 -143 492 -209
630 -101 207 -219 366 -441 594 -136 139 -291 278 -300 269 -3 -3 -23 -164
-45 -359 -101 -889 -154 -1299 -170 -1309 -6 -4 -66 -10 -133 -14 -338 -18
-842 -96 -1147 -176 -41 -10 -76 -18 -77 -16 -2 2 -17 58 -33 125 -67 276
-168 547 -310 836 -149 303 -245 440 -446 635 -169 164 -408 346 -596 455
l-48 27 0 -74z m259 -305 c218 -154 390 -324 516 -513 123 -183 275 -509 372
-795 300 -884 255 -1842 -112 -2400 -117 -177 -320 -423 -439 -532 l-61 -55
50 25 c147 74 331 214 471 358 171 178 287 392 359 661 l17 66 42 -14 c22 -8
106 -50 186 -94 258 -140 473 -214 700 -241 181 -21 405 8 508 66 52 29 71 27
161 -22 84 -45 193 -129 323 -249 146 -135 233 -236 297 -342 149 -248 460
-518 866 -752 61 -35 198 -106 305 -158 107 -52 196 -96 198 -97 8 -7 33 -260
38 -390 11 -252 -30 -523 -127 -855 -82 -278 -73 -379 41 -490 97 -94 308
-218 475 -279 92 -33 93 -35 71 -137 -56 -269 -221 -516 -406 -606 -149 -73
-323 -108 -535 -108 -226 0 -372 32 -538 117 -161 83 -250 166 -353 330 -46
74 -134 272 -134 303 0 6 -26 -6 -57 -26 -218 -139 -411 -342 -494 -519 -93
-200 -88 -370 17 -579 25 -49 43 -90 41 -92 -7 -8 -146 -24 -206 -24 l-65 0
-107 108 c-120 121 -261 233 -395 315 -122 74 -178 102 -425 207 -246 105
-363 165 -504 258 -127 84 -280 236 -404 402 -51 69 -98 130 -103 135 -16 17
78 -186 122 -265 90 -159 184 -272 315 -380 96 -79 242 -173 356 -230 l95 -48
66 -124 c167 -310 250 -488 320 -682 177 -494 214 -1033 107 -1566 -12 -58
-23 -107 -24 -108 -2 -2 -57 28 -122 68 -65 39 -152 87 -193 107 -74 35 -369
137 -376 130 -2 -2 62 -48 142 -102 437 -296 704 -541 788 -726 59 -129 110
-390 127 -652 24 -368 -35 -847 -155 -1257 -136 -468 -497 -1059 -754 -1234
-92 -63 -125 -67 -199 -26 -214 120 -385 343 -478 623 -64 193 -89 373 -83
604 3 141 4 150 32 200 15 28 58 89 95 134 215 267 387 571 476 843 39 118
111 405 103 411 -2 1 -64 33 -138 72 -225 116 -400 240 -588 418 -92 86 -110
117 -227 380 -136 306 -463 1396 -565 1882 l-42 202 20 28 c94 133 159 366
183 653 29 353 -21 661 -205 1260 -232 757 -321 1181 -342 1625 -4 84 -2 180
5 240 34 299 146 661 294 949 l52 101 6 -110 c4 -60 7 -234 9 -385 1 -151 3
-270 5 -265 7 16 53 452 69 655 9 102 22 316 31 475 8 160 22 412 31 560 14
226 16 390 10 1010 -3 407 -10 841 -15 965 -19 448 -24 630 -16 630 4 0 37
-21 74 -47z m2911 -368 c66 -336 113 -694 125 -940 3 -66 8 -132 10 -146 l4
-26 -171 -7 c-94 -3 -172 -5 -174 -4 -1 2 6 66 17 142 33 238 136 1102 140
1169 1 30 21 -45 49 -188z m71 108 c230 -235 352 -434 459 -748 46 -135 109
-364 125 -455 l6 -35 -188 3 c-103 2 -192 7 -197 12 -4 4 -12 64 -17 132 -27
374 -116 774 -239 1074 -21 52 -35 94 -31 94 3 0 41 -35 82 -77z m-6071 -7840
c-1 -5 -35 -24 -78 -43 -182 -83 -407 -266 -530 -430 -31 -41 -95 -110 -142
-151 -108 -96 -258 -269 -347 -401 -121 -178 -430 -745 -621 -1138 -57 -118
-183 -388 -279 -600 -278 -614 -372 -778 -551 -959 -175 -177 -336 -278 -513
-321 -157 -38 -405 -37 -564 4 l-50 12 -12 90 c-12 98 -16 184 -8 184 4 0 20
-7 38 -17 180 -93 483 -55 702 89 191 125 286 254 635 868 135 236 167 306
346 745 266 655 477 1053 734 1384 89 114 260 293 355 371 200 163 428 279
612 310 62 10 273 12 273 3z m1053 -42 c48 -4 89 -10 91 -12 2 -2 11 -112 20
-244 22 -308 42 -532 62 -670 20 -143 99 -574 119 -648 8 -32 27 -136 41 -230
24 -160 116 -676 184 -1037 47 -249 55 -323 55 -555 0 -174 -4 -241 -19 -320
-33 -174 -84 -296 -145 -348 -59 -49 -322 -97 -529 -97 -156 0 -394 37 -496
76 -21 8 -21 -37 -1 -211 45 -383 106 -609 299 -1107 197 -507 359 -1060 426
-1451 39 -232 35 -240 -171 -291 -158 -40 -286 -56 -484 -63 -207 -7 -371 6
-529 42 -110 25 -259 88 -287 121 -63 75 -200 986 -343 2276 -54 485 -74 742
-84 1068 -12 386 3 535 60 620 31 45 144 105 237 126 131 30 359 10 494 -42
11 -4 -11 35 -55 97 -482 688 -524 754 -613 976 -73 181 -133 505 -121 653 31
364 158 654 383 875 135 133 328 252 500 309 120 39 312 71 528 89 78 7 291 5
378 -2z m1592 -892 c72 -61 133 -116 136 -122 4 -7 12 -64 18 -127 6 -63 15
-167 21 -230 6 -63 13 -121 16 -129 4 -12 -69 -159 -173 -348 -15 -29 -38 -57
-51 -62 -30 -14 -205 -57 -264 -66 l-48 -6 0 -43 0 -42 51 6 c33 4 52 3 55 -4
3 -10 44 -401 44 -423 0 -18 -166 -36 -265 -29 -156 11 -364 69 -385 107 -4 8
-11 55 -15 104 -3 50 -10 122 -15 160 -5 39 -10 87 -10 107 l0 37 42 -15 c22
-8 43 -12 46 -9 5 4 -3 109 -28 360 -5 50 -14 149 -20 220 -7 72 -13 139 -14
150 -2 13 -12 21 -27 23 -77 9 -73 1 -89 192 -6 69 -13 148 -16 176 l-6 51
213 6 c240 7 417 25 649 66 3 0 64 -49 135 -110z m-811 -1890 c49 -16 141 -40
205 -55 64 -14 117 -26 117 -27 1 -1 18 -69 39 -152 51 -206 98 -359 151 -493
25 -62 44 -117 42 -122 -8 -21 -327 95 -500 181 l-98 49 0 90 c0 148 -30 367
-76 544 -6 26 -5 28 12 21 10 -4 59 -20 108 -36z m2128 -265 c76 -63 212 -159
313 -219 17 -10 17 -14 0 -70 -9 -33 -22 -66 -28 -74 -20 -24 -265 -138 -389
-180 -138 -47 -304 -85 -483 -112 -123 -18 -131 -18 -146 -1 -25 25 -153 273
-200 388 -23 54 -63 164 -89 244 l-48 145 217 12 c216 11 452 34 585 57 l71
12 52 -62 c29 -34 94 -97 145 -140z m-1907 -659 c92 -35 281 -92 409 -123 16
-4 31 -13 34 -21 4 -11 -25 -13 -160 -9 l-165 4 14 -61 c19 -85 126 -406 186
-559 27 -71 126 -283 219 -470 188 -376 245 -501 353 -776 144 -364 235 -659
235 -762 l0 -59 -52 -24 c-184 -84 -619 -136 -888 -106 -207 22 -385 83 -416
142 -59 114 -307 1296 -439 2089 -8 52 -18 107 -21 122 -5 26 -2 28 53 44 157
45 235 130 302 329 26 77 38 137 67 322 l5 32 77 -36 c42 -19 127 -54 187 -78z
m3409 -1175 c96 -326 286 -893 352 -1054 96 -230 161 -410 187 -514 l20 -83
-33 -34 c-108 -111 -416 -205 -725 -221 -276 -14 -626 73 -688 173 -58 93
-170 415 -151 432 5 5 29 16 53 25 180 70 408 327 626 706 126 218 245 485
291 648 9 35 20 59 24 55 4 -4 24 -64 44 -133z"/>
<path d="M8305 15423 c25 -57 123 -350 160 -478 193 -656 241 -1164 165 -1732
-33 -249 -104 -571 -166 -757 -32 -97 -8 -64 67 89 154 318 252 756 275 1225
24 496 -157 1138 -447 1591 -48 75 -70 100 -54 62z"/>
<path d="M10668 12160 c-253 -46 -438 -172 -592 -403 -157 -235 -232 -508
-243 -882 -7 -240 6 -360 61 -574 48 -185 90 -301 170 -468 48 -100 139 -253
150 -253 2 0 -7 34 -20 75 -13 42 -24 80 -24 85 0 5 22 -6 50 -25 95 -64 263
-102 406 -92 134 10 265 71 362 170 l43 43 -96 142 c-52 77 -95 144 -95 147 0
4 18 37 39 73 39 67 97 219 121 320 6 28 15 52 19 52 4 0 60 -12 125 -26 65
-14 120 -24 122 -21 3 2 10 89 16 193 21 362 -23 655 -137 900 -67 147 -173
277 -276 341 -33 20 -59 38 -59 40 0 7 87 -9 150 -29 148 -45 279 -151 454
-368 114 -142 159 -213 227 -355 91 -191 156 -420 178 -627 25 -222 6 -515
-44 -713 -12 -49 -21 -92 -20 -94 8 -8 69 128 100 222 61 184 85 411 66 607
-27 271 -110 560 -231 805 -82 168 -143 261 -244 378 -152 173 -301 274 -481
324 -62 17 -234 25 -297 13z m39 -391 c111 -53 215 -238 254 -449 7 -36 12
-117 11 -180 -2 -464 -304 -585 -488 -195 -96 205 -118 465 -54 650 57 165
161 230 277 174z m-471 -1148 c56 -34 93 -144 80 -235 -8 -54 -48 -106 -81
-106 -57 0 -115 87 -123 185 -7 91 32 168 88 174 3 1 19 -8 36 -18z"/>
<path d="M12560 8910 c0 -61 35 -128 80 -152 46 -25 116 -20 161 13 34 24 34
24 9 27 -14 2 -53 12 -87 23 -52 17 -71 30 -113 77 l-50 57 0 -45z"/>
<path d="M7280 6904 c-129 -20 -302 -34 -432 -34 -134 0 -124 9 -112 -97 l7
-53 47 0 48 0 7 -77 c3 -43 8 -100 11 -128 2 -27 8 -93 14 -145 11 -111 25
-263 41 -445 6 -71 15 -161 19 -200 4 -38 7 -71 6 -72 0 -1 -21 2 -46 7 -25 5
-47 7 -49 5 -2 -2 0 -33 3 -68 l7 -64 52 -12 c67 -16 165 -26 247 -26 l65 0 3
49 c6 86 -1 96 -58 96 -33 0 -50 4 -51 13 -1 19 -8 95 -19 187 -6 47 -10 106
-10 131 l0 45 118 12 c136 13 270 45 293 70 9 9 46 69 82 132 l66 115 -9 85
c-26 241 -30 277 -30 298 0 15 -16 37 -42 60 -23 20 -65 58 -94 85 -56 52 -53
51 -184 31z m147 -196 c22 -24 22 -25 53 -286 l11 -93 -38 -57 c-35 -52 -42
-58 -91 -68 -63 -14 -290 -40 -296 -33 -4 4 -19 128 -30 244 -3 28 -10 105
-17 173 -11 102 -10 125 0 132 8 4 57 11 110 15 53 4 125 13 161 20 71 13 86
8 137 -47z"/>
<path d="M7233 6599 c-35 -4 -67 -10 -71 -13 -7 -4 14 -245 21 -253 2 -1 38 4
82 11 l80 12 -1 35 c0 18 -4 76 -9 127 -6 75 -11 92 -24 91 -9 -1 -44 -5 -78
-10z"/>
</g>
</svg>
